<svg width="124" height="40" viewBox="0 0 124 40" xmlns="http://www.w3.org/2000/svg" role="img" aria-label="LinkedIn">
  <rect x="0.75" y="0.75" width="122.5" height="38.5" rx="10" fill="#161b22" stroke="#0A66C2" stroke-opacity="0.6" stroke-width="1.5"/>
  <g transform="translate(13,11) scale(0.75)" fill="#0A66C2"><path d="M20.447 20.452h-3.554v-5.569c0-1.328-.027-3.037-1.852-3.037-1.853 0-2.136 1.445-2.136 2.939v5.667H9.351V9h3.414v1.561h.046c.477-.9 1.637-1.85 3.37-1.85 3.601 0 4.267 2.37 4.267 5.455v6.286zM5.337 7.433a2.062 2.062 0 0 1-2.063-2.065 2.064 2.064 0 1 1 2.063 2.065zm1.782 13.019H3.555V9h3.564v11.452zM22.225 0H1.771C.792 0 0 .774 0 1.729v20.542C0 23.227.792 24 1.771 24h20.451C23.2 24 24 23.227 24 22.271V1.729C24 .774 23.2 0 22.225 0z"/></g>
  <text x="40" y="25" font-size="14" font-weight="600" font-family="'IBM Plex Sans',-apple-system,'Segoe UI',sans-serif" fill="#e6edf3">LinkedIn</text>
</svg>
